<svg width="118" height="37" viewBox="0 0 118 37" fill="none" xmlns="http://www.w3.org/2000/svg">
<path d="M62.0636 9.57418C62.0636 10.864 60.9911 11.9192 59.6802 11.9192C58.3694 11.9192 57.2968 10.864 57.2968 9.57418C57.2968 8.2844 58.3098 7.22913 59.6802 7.22913C61.0507 7.25845 62.0636 8.31372 62.0636 9.57418ZM52.2917 14.2643C52.2917 14.4695 52.2917 14.8505 52.2917 14.8505C52.2917 14.8505 51.1596 13.4142 48.7464 13.4142C44.784 13.4142 41.6558 16.4041 41.6558 20.5079C41.6558 24.6118 44.7245 27.6017 48.7464 27.6017C51.1894 27.6017 52.2917 26.136 52.2917 26.136V26.7516C52.2917 27.0448 52.5003 27.2499 52.7982 27.2499H55.7476V13.7659C55.7476 13.7659 53.0365 13.7659 52.7982 13.7659C52.5003 13.7659 52.2917 14.0298 52.2917 14.2643ZM52.2917 22.9116C51.7555 23.7031 50.6531 24.3773 49.3423 24.3773C47.0185 24.3773 45.2309 22.9409 45.2309 20.5079C45.2309 18.075 47.0185 16.6386 49.3423 16.6386C50.6233 16.6386 51.7853 17.3421 52.2917 18.1043V22.9116ZM57.9523 13.7659H61.4678V27.2499H57.9523V13.7659ZM110.238 13.4142C107.825 13.4142 106.693 14.8505 106.693 14.8505V7.28776H103.177V27.2793C103.177 27.2793 105.888 27.2793 106.127 27.2793C106.424 27.2793 106.633 27.0154 106.633 26.7809V26.1654C106.633 26.1654 107.765 27.631 110.178 27.631C114.141 27.631 117.269 24.6118 117.269 20.5373C117.299 16.4334 114.171 13.4142 110.238 13.4142ZM109.672 24.348C108.331 24.348 107.259 23.6738 106.722 22.8823V18.075C107.259 17.3714 108.45 16.6093 109.672 16.6093C111.996 16.6093 113.783 18.0456 113.783 20.4786C113.783 22.9116 111.996 24.348 109.672 24.348ZM101.39 19.2475V27.2793H97.8741V19.6579C97.8741 17.4301 97.1591 16.5214 95.163 16.5214C94.0904 16.5214 93.0179 17.049 92.3327 17.8405V27.2499H88.8172V13.7659H91.5879C91.8858 13.7659 92.0943 14.0298 92.0943 14.2643V14.8505C93.1073 13.7953 94.4777 13.4142 95.8184 13.4142C97.3378 13.4142 98.6189 13.8539 99.6616 14.704C100.913 15.7006 101.39 16.9904 101.39 19.2475ZM80.3264 13.4142C77.9132 13.4142 76.7811 14.8505 76.7811 14.8505V7.28776H73.2656V27.2793C73.2656 27.2793 75.9767 27.2793 76.215 27.2793C76.5129 27.2793 76.7215 27.0154 76.7215 26.7809V26.1654C76.7215 26.1654 77.8536 27.631 80.2668 27.631C84.2292 27.631 87.3574 24.6118 87.3574 20.5373C87.4169 16.4334 84.3185 13.4142 80.3264 13.4142ZM79.7603 24.348C78.4196 24.348 77.3471 23.6738 76.8109 22.8823V18.075C77.3471 17.3714 78.5388 16.6093 79.7603 16.6093C82.0841 16.6093 83.8716 18.0456 83.8716 20.4786C83.8716 22.9116 82.0841 24.348 79.7603 24.348ZM70.2565 13.4142C71.3291 13.4142 71.8653 13.5901 71.8653 13.5901V16.7852C71.8653 16.7852 68.9457 15.8179 67.1283 17.8698V27.3086H63.6128V13.7659C63.6128 13.7659 66.3239 13.7659 66.5623 13.7659C66.8602 13.7659 67.0687 14.0298 67.0687 14.2643V14.8505C67.754 14.0884 69.184 13.4142 70.2565 13.4142ZM33.9098 26.0481C33.7311 25.6084 33.5523 25.1394 33.3736 24.7583C33.0756 24.1134 32.7777 23.4979 32.5394 22.9409L32.5096 22.9116C30.007 17.518 27.2959 12.0658 24.4358 6.7015L24.3167 6.49631C24.0187 5.96867 23.7208 5.38241 23.4527 4.79615C23.0952 4.15126 22.7377 3.47706 22.1418 2.83218C20.9799 1.39584 19.3115 0.604385 17.524 0.604385C15.7067 0.604385 14.0681 1.39584 12.8466 2.74424C12.3103 3.38913 11.8932 4.06332 11.5357 4.70821C11.2378 5.29447 10.9399 5.85142 10.6718 6.40837L10.5526 6.61356C7.7521 12.0072 5.0112 17.4594 2.47885 22.8237L2.44906 22.8823C2.18092 23.4686 1.91279 24.0548 1.61487 24.6997C1.43611 25.0808 1.25736 25.5205 1.07861 25.9895C0.601928 27.3086 0.452966 28.569 0.631721 29.8588C1.01902 32.5556 2.86615 34.8127 5.36871 35.8094C6.32207 36.1904 7.30522 36.3956 8.31816 36.3956C8.61608 36.3956 8.97359 36.3663 9.27151 36.337C10.4632 36.1904 11.7145 35.8094 12.9062 35.1058C14.3958 34.2851 15.8258 33.0832 17.4346 31.3831C19.0434 33.1126 20.5032 34.2851 21.9631 35.1058C23.1548 35.78 24.406 36.1904 25.5977 36.337C25.8957 36.3663 26.2532 36.3956 26.5511 36.3956C27.564 36.3956 28.6068 36.2197 29.5005 35.8094C32.0627 34.8127 33.8502 32.497 34.2375 29.8588C34.5355 28.6277 34.3865 27.3672 33.9098 26.0481ZM17.4644 27.8948C15.4981 25.4618 14.217 23.1461 13.7702 21.2115C13.5914 20.3907 13.5616 19.6579 13.651 19.013C13.7106 18.4267 13.9489 17.9284 14.2468 17.518C14.9321 16.5507 16.094 15.9351 17.4644 15.9351C18.8349 15.9351 20.0266 16.5214 20.682 17.518C20.9799 17.9577 21.1885 18.456 21.2778 19.013C21.397 19.6579 21.3374 20.42 21.1587 21.2115C20.7118 23.1461 19.4307 25.4325 17.4644 27.8948ZM32.0031 29.595C31.735 31.471 30.4837 33.0832 28.6961 33.7868C27.8322 34.1385 26.8788 34.2558 25.9255 34.1385C25.0019 34.0213 24.1081 33.7574 23.1548 33.2005C21.8439 32.497 20.533 31.3831 18.9838 29.7122C21.397 26.8102 22.8568 24.1428 23.3931 21.7684C23.6612 20.6545 23.691 19.6579 23.5719 18.7198C23.4229 17.8111 23.0952 16.9904 22.5887 16.2869C21.4566 14.6746 19.5499 13.7366 17.4346 13.7366C15.3194 13.7366 13.4127 14.704 12.2805 16.2869C11.7741 16.9904 11.4464 17.8405 11.2974 18.7198C11.1484 19.6579 11.1782 20.6838 11.4761 21.7684C12.0124 24.1428 13.5318 26.8396 15.8854 29.7416C14.3958 31.3831 13.0551 32.497 11.7145 33.2298C10.7611 33.7574 9.86736 34.0506 8.9438 34.1678C7.96065 34.2851 7.00729 34.1385 6.1731 33.8161C4.38556 33.1126 3.10449 31.471 2.86615 29.6243C2.74698 28.7156 2.83636 27.8362 3.19387 26.8396C3.31304 26.4878 3.49179 26.136 3.67054 25.6964C3.93868 25.1101 4.20681 24.5238 4.50473 23.9083L4.53452 23.8496C7.03708 18.5147 9.74819 13.0331 12.5487 7.72746L12.6678 7.52226C12.9658 6.99463 13.2637 6.40837 13.5318 5.88073C13.8297 5.29447 14.1575 4.76684 14.5448 4.29783C15.3194 3.44775 16.3323 2.97874 17.4644 2.97874C18.5965 2.97874 19.6095 3.44775 20.3841 4.29783C20.7714 4.76684 21.0991 5.29447 21.397 5.88073C21.6949 6.40837 21.9929 6.99463 22.261 7.52226L22.3802 7.72746C25.1509 13.0624 27.862 18.544 30.3645 23.8789V23.9083C30.6624 24.4945 30.9008 25.1394 31.1987 25.6964C31.3775 26.136 31.5562 26.4878 31.6754 26.8396C32.0329 27.7483 32.1521 28.657 32.0031 29.595Z" fill="#4F5665"/>
</svg>
