<svg width="14" height="18" viewBox="0 0 14 18" fill="none" xmlns="http://www.w3.org/2000/svg">
<path d="M11.5787 9.29677C11.5609 7.17243 13.3173 6.13993 13.3944 6.09246C12.3975 4.64458 10.8547 4.44283 10.3147 4.42503C9.02114 4.28855 7.76315 5.20237 7.10449 5.20237C6.43395 5.20237 5.41332 4.44283 4.32148 4.46063C2.91514 4.48437 1.59188 5.29731 0.873876 6.56717C-0.615536 9.14842 0.494106 12.9461 1.92418 15.0349C2.64218 16.0555 3.47293 17.2007 4.5707 17.1592C5.63881 17.1177 6.04232 16.4768 7.32998 16.4768C8.6117 16.4768 8.98554 17.1592 10.1011 17.1355C11.2523 17.1177 11.9703 16.1089 12.6646 15.0764C13.4894 13.9074 13.8217 12.7503 13.8335 12.691C13.8039 12.6791 11.6024 11.8365 11.5787 9.29677Z" fill="white"/>
<path d="M9.47225 3.05435C10.0478 2.33635 10.4395 1.35725 10.3327 0.360352C9.50192 0.395955 8.45755 0.935941 7.85822 1.64208C7.33011 2.26514 6.85539 3.27984 6.97407 4.2352C7.91163 4.30641 8.87292 3.76048 9.47225 3.05435Z" fill="white"/>
</svg>
