<svg width="110" height="24" viewBox="0 0 110 24" fill="none" xmlns="http://www.w3.org/2000/svg">
<path d="M18.5924 21.0438C13.5264 21.0438 9.42074 16.936 9.42074 11.869C9.42074 6.80176 13.5264 2.69786 18.5924 2.69786C20.378 2.69786 22.0451 3.20712 23.4535 4.08985L18.5924 11.869L27.7438 6.58492C26.7495 5.00076 25.3235 3.63575 23.5992 2.59994C21.405 1.28627 18.3527 0.473282 14.9776 0.473282C10.1632 0.473282 5.93942 2.22279 3.58395 4.84277C1.84002 6.77956 0.801758 9.21716 0.801758 11.8689C0.801758 14.5225 1.84002 16.9619 3.58395 18.9C5.94555 21.5233 10.1064 23.2626 14.8414 23.2626C19.5758 23.2626 23.7354 21.5219 26.0985 18.9C26.2279 18.7556 26.3532 18.6099 26.4717 18.4587L26.1148 17.1212C24.4545 19.4911 21.7046 21.0438 18.5924 21.0438Z" fill="#4F5665"/>
<path d="M48.9324 22.7107L45.0915 8.38232C44.4745 6.06689 42.3661 4.36505 39.8559 4.36505C39.2049 4.36505 38.5811 4.48137 38.0022 4.69194L29.7334 7.69872H38.2378L39.6911 13.1261C38.2814 11.9128 36.4454 11.1746 34.4351 11.1746C30.443 11.1746 27.2109 13.8497 27.2109 17.1496C27.2109 20.4498 30.443 23.1289 34.4351 23.1289C37.3089 23.1289 39.8505 21.7219 41.4181 19.5604L42.2612 22.7107H48.9324ZM37.2163 20.4852C35.3749 20.4852 33.8821 18.9938 33.8821 17.1496C33.8821 15.3082 35.3749 13.8154 37.2163 13.8154C39.0578 13.8154 40.5519 15.3082 40.5519 17.1496C40.5519 18.9938 39.0578 20.4852 37.2163 20.4852Z" fill="#4F5665"/>
<path d="M64.5931 4.36757C64.0891 4.36757 63.6124 4.47898 63.1875 4.67852L57.8783 7.15276C57.6155 5.57227 56.2426 4.36757 54.5864 4.36757C54.0851 4.36757 53.6071 4.47898 53.1767 4.67852L46.6948 7.69879H51.2521V22.7109H57.9233V9.3689C57.9233 8.44831 58.6683 7.69893 59.5918 7.69893C60.5098 7.69893 61.2602 8.44831 61.2602 9.3689V22.7109H67.9287V7.69879C67.9287 5.85775 66.4345 4.36771 64.5931 4.36771" fill="#4F5665"/>
<path d="M106.429 4.36757C105.924 4.36757 105.444 4.47898 105.012 4.67852L99.7086 7.15276C99.4471 5.57227 98.0742 4.36757 96.418 4.36757C95.9168 4.36757 95.4387 4.47898 95.0069 4.67852L88.5278 7.69879H93.0838V22.7109H99.7536V9.3689C99.7536 8.44831 100.5 7.69893 101.423 7.69893C102.344 7.69893 103.089 8.44831 103.089 9.3689V22.7109H109.763V7.69879C109.763 5.85775 108.268 4.36771 106.429 4.36771" fill="#4F5665"/>
<path d="M89.6065 13.8153C89.6065 19.0334 85.3774 23.2624 80.1609 23.2624C74.9403 23.2624 70.7085 19.0334 70.7085 13.8153C70.7085 8.59867 74.9403 4.36757 80.1609 4.36757C85.3774 4.36757 89.6065 8.59881 89.6065 13.8153ZM80.5518 7.23489C80.2549 6.12321 79.1121 5.46331 78.0007 5.76214C76.8907 6.05974 76.2274 7.20315 76.5257 8.31469L79.7659 20.3954C80.0656 21.5081 81.2056 22.1674 82.317 21.8732C83.4284 21.5722 84.0889 20.4294 83.7907 19.318L80.5518 7.23489Z" fill="#4F5665"/>
</svg>
