<svg width="70" height="69" viewBox="0 0 70 69" fill="none" xmlns="http://www.w3.org/2000/svg">
<path d="M33.9517 0.491241H36.0677C46.3602 1.07132 53.6988 4.97741 59.1395 10.4516C64.5803 15.9259 68.6021 23.1459 69.1395 33.4764V35.523C68.6169 46.0186 64.5241 52.9457 59.1395 58.5818C53.4831 63.9355 46.5296 67.9917 36.0336 68.5078H33.9517C23.6605 67.9266 16.3205 64.0221 10.8799 58.5476C5.43921 53.0733 1.41731 45.8534 0.879883 35.523V33.4764C0.906666 33.4689 0.919763 33.4478 0.914024 33.4081C1.42864 23.1171 5.47246 15.822 10.88 10.4175C16.3124 4.98785 23.7271 1.05381 33.9517 0.491241ZM27.2622 5.36908C25.2343 5.91179 23.4157 6.601 21.7674 7.41566C16.7501 9.89525 12.6125 13.4428 9.71951 17.99C6.8958 22.4285 4.45088 28.1382 4.80495 35.6252C5.02819 40.3454 6.10584 44.3159 7.80819 47.7004C11.1701 54.3832 16.2883 59.3072 23.3716 62.3C26.8743 63.7799 31.2145 64.8179 36.102 64.5853C40.7901 64.3621 44.8524 63.3089 48.2182 61.6177C54.8145 58.3028 60.0129 53.1883 62.8942 46.1314C64.3513 42.5617 65.4533 38.4378 65.215 33.4421C64.7641 23.9787 60.9125 17.562 55.8294 12.6687C53.3143 10.2475 50.2858 8.18797 46.7168 6.6994C43.254 5.25509 38.746 4.18422 33.918 4.41395C31.5444 4.52691 29.3054 4.82224 27.2622 5.36908Z" fill="#4F5665"/>
<path d="M31.8699 25.6649C32.9512 26.3806 34.0573 27.0717 35.0782 27.848C32.772 29.2952 30.5112 30.7879 28.2181 32.2483C28.5663 32.5143 28.9622 32.7326 29.3102 32.9987C31.6224 31.5346 33.9353 30.0715 36.2387 28.5984C37.2717 29.2374 38.2888 29.8924 39.2422 30.611C36.9341 32.0679 34.7035 33.602 32.4162 35.0794C32.7551 35.3548 33.1705 35.5535 33.5422 35.7958C35.9064 34.3496 38.2116 32.8445 40.5388 31.3615V26.5177H45.6584V36.1711C47.1031 36.2505 48.6961 36.1824 50.1979 36.2049V40.7419H40.5388V36.1367C37.701 37.8599 34.7928 39.8085 31.9382 41.6286C28.9654 39.6994 26.1003 37.6619 23.1327 35.7275C22.273 38.451 20.2311 40.4998 16.8526 40.7419C14.7456 40.8925 12.3513 40.6293 9.92432 40.7419V26.5177C12.9585 26.7186 16.2902 26.1122 18.6957 26.8587C20.8226 27.519 22.3305 29.2151 23.0301 31.3273C26 29.4631 28.9221 27.5515 31.8699 25.6649ZM14.8047 31.0886V36.2051C16.0243 36.2111 16.9518 36.2819 17.6716 35.7277C18.7425 34.9033 18.9582 32.8597 18.0128 31.7707C17.382 31.0441 16.3168 30.8916 14.8387 30.9862C14.7993 30.9919 14.8018 31.0402 14.8047 31.0886ZM51.5286 26.5177H56.648V36.2051H61.1532V40.742H51.4942V26.62C51.4915 26.5717 51.4887 26.5234 51.5286 26.5177Z" fill="#4F5665"/>
</svg>
