<svg width="103" height="63" viewBox="0 0 103 63" fill="none" xmlns="http://www.w3.org/2000/svg">
<path d="M51.4579 6.2616L42.4064 12.1103L51.4579 17.959L42.4064 23.8077L33.355 17.9103L42.4064 12.0616L33.355 6.2616L42.4064 0.412903L51.4579 6.2616ZM42.3583 25.6598L51.4097 19.8111L60.4612 25.6598L51.4097 31.5085L42.3583 25.6598ZM51.4579 17.9103L60.5093 12.0616L51.4579 6.2616L60.4612 0.412903L69.5126 6.2616L60.4612 12.1103L69.5126 17.959L60.4612 23.8077L51.4579 17.9103Z" fill="#4F5665"/>
<path d="M0.10791 40.6273H6.72442C10.9468 40.6273 14.4292 43.065 14.4292 48.6368V49.8121C14.4292 55.4274 11.1645 57.9521 6.85502 57.9521H0.10791V40.6273ZM3.80794 43.7615V54.7745H6.63737C9.0315 54.7745 10.6421 53.2074 10.6421 49.725V48.8109C10.6421 45.3285 8.94444 43.7615 6.50678 43.7615H3.80794ZM16.388 43.9356H19.348L19.8269 47.2003C20.3928 44.9803 21.8292 43.805 24.441 43.805H25.3551V47.5485H23.8316C20.8281 47.5485 20.088 48.5933 20.088 51.5533V57.9957H16.4316V43.9356H16.388ZM26.0951 51.2486V50.8568C26.0951 46.1556 29.0987 43.5873 33.1905 43.5873C37.3693 43.5873 40.2858 46.1556 40.2858 50.8568V51.2486C40.2858 55.8627 37.4564 58.3439 33.1905 58.3439C28.6634 58.3004 26.0951 55.8627 26.0951 51.2486ZM36.5423 51.205V50.8568C36.5423 48.245 35.2364 46.678 33.147 46.678C31.1011 46.678 29.7516 48.1144 29.7516 50.8568V51.205C29.7516 53.7298 31.0575 55.1662 33.147 55.1662C35.2364 55.1227 36.5423 53.7298 36.5423 51.205ZM42.2011 43.9356H45.2482L45.5965 46.5909C46.3365 44.8062 47.9035 43.5873 50.2106 43.5873C53.78 43.5873 56.1306 46.1556 56.1306 50.9003V51.2921C56.1306 55.9063 53.5189 58.3439 50.2106 58.3439C47.9906 58.3439 46.4671 57.3427 45.727 55.7321V62.8275H42.1576L42.2011 43.9356ZM52.4306 51.205V50.9003C52.4306 48.1144 50.9941 46.7215 49.0788 46.7215C47.0329 46.7215 45.6835 48.2886 45.6835 50.9003V51.1615C45.6835 53.6427 46.9894 55.2098 49.0353 55.2098C51.1247 55.1662 52.4306 53.8168 52.4306 51.205ZM61.5283 55.3839L61.2236 57.9521H58.0895V39.2344H61.6589V46.4168C62.4425 44.5885 64.0095 43.5873 66.2295 43.5873C69.5813 43.6309 72.0625 45.938 72.0625 50.5956V51.0309C72.0625 55.6886 69.7119 58.3439 66.1425 58.3439C63.7919 58.3004 62.2683 57.2121 61.5283 55.3839ZM68.319 51.0309V50.6827C68.319 48.1144 66.926 46.678 64.9672 46.678C62.9648 46.678 61.5719 48.2886 61.5719 50.7262V51.0309C61.5719 53.6427 62.9213 55.1662 64.9236 55.1662C67.0566 55.1662 68.319 53.8168 68.319 51.0309ZM73.6296 51.2486V50.8568C73.6296 46.1556 76.6331 43.5873 80.7249 43.5873C84.9038 43.5873 87.8203 46.1556 87.8203 50.8568V51.2486C87.8203 55.8627 84.9473 58.3439 80.7249 58.3439C76.1978 58.3004 73.6296 55.8627 73.6296 51.2486ZM84.1202 51.205V50.8568C84.1202 48.245 82.8144 46.678 80.7249 46.678C78.679 46.678 77.3296 48.1144 77.3296 50.8568V51.205C77.3296 53.7298 78.6355 55.1662 80.7249 55.1662C82.8144 55.1227 84.1202 53.7298 84.1202 51.205ZM92.6085 50.6827L87.6897 43.9356H91.9121L94.7415 48.158L97.6145 43.9356H101.793L96.7874 50.6392L102.054 57.9521H97.9192L94.698 53.2945L91.5638 57.9521H87.2544L92.6085 50.6827Z" fill="#4F5665"/>
</svg>
