<svg width="20" height="20" viewBox="0 0 20 20" fill="none" xmlns="http://www.w3.org/2000/svg">
    <path fillRule="evenodd" clipRule="evenodd"
        d="M9.9132 0.839844C4.52679 0.839844 0.193359 5.17327 0.193359 10.5597C0.193359 14.8526 2.98781 18.4976 6.83525 19.7935C7.32124 19.8745 7.48324 19.591 7.48324 19.3075C7.48324 19.0646 7.48324 18.4571 7.48324 17.6471C4.76979 18.2546 4.20279 16.3511 4.20279 16.3511C3.7573 15.2171 3.10931 14.9336 3.10931 14.9336C2.21833 14.3261 3.19031 14.3261 3.19031 14.3261C4.1623 14.4071 4.68879 15.3386 4.68879 15.3386C5.53927 16.8371 6.95675 16.3916 7.52374 16.1486C7.60474 15.5006 7.84774 15.0956 8.13123 14.8526C5.98477 14.6096 3.7168 13.7591 3.7168 10.0332C3.7168 8.98021 4.0813 8.08923 4.72929 7.44124C4.64829 7.19824 4.28379 6.22626 4.81028 4.84928C4.81028 4.84928 5.62027 4.60628 7.48324 5.86176C8.25273 5.65927 9.10322 5.53777 9.9132 5.53777C10.7232 5.53777 11.5737 5.65927 12.3432 5.86176C14.2061 4.60628 15.0161 4.84928 15.0161 4.84928C15.5426 6.18576 15.2186 7.15774 15.0971 7.44124C15.7046 8.12973 16.1096 8.98021 16.1096 10.0332C16.1096 13.7591 13.8416 14.5691 11.6547 14.8121C12.0192 15.0956 12.3027 15.7031 12.3027 16.5941C12.3027 17.8901 12.3027 18.9431 12.3027 19.267C12.3027 19.51 12.4647 19.834 12.9912 19.753C16.8386 18.4976 19.633 14.8526 19.633 10.5597C19.633 5.17327 15.2996 0.839844 9.9132 0.839844Z"
        fill="#2948FF" />
</svg>