<svg width="24" height="24" viewBox="0 0 24 24" fill="none" xmlns="http://www.w3.org/2000/svg">
<circle cx="12" cy="12" r="12" fill="#00A700"/>
<g clip-path="url(#clip0_112_1587)">
<path fill-rule="evenodd" clip-rule="evenodd" d="M12.0001 18.6203C15.6566 18.6203 18.6208 15.6561 18.6208 11.9996C18.6208 8.34309 15.6566 5.37891 12.0001 5.37891C8.34358 5.37891 5.37939 8.34309 5.37939 11.9996C5.37939 15.6561 8.34358 18.6203 12.0001 18.6203ZM15.1286 10.5764C15.371 10.334 15.371 9.94102 15.1286 9.69863C14.8862 9.45624 14.4933 9.45624 14.2509 9.69863L10.9656 12.9839L9.74932 11.7676C9.50693 11.5252 9.11393 11.5252 8.87154 11.7676C8.62914 12.01 8.62914 12.403 8.87154 12.6454L10.5267 14.3005C10.7691 14.5429 11.1621 14.5429 11.4045 14.3005L15.1286 10.5764Z" fill="white"/>
</g>
<defs>
<clipPath id="clip0_112_1587">
<rect width="13.2414" height="13.2414" fill="white" transform="translate(5.37939 5.37891)"/>
</clipPath>
</defs>
</svg>
