<svg width="80" height="53" viewBox="0 0 80 53" fill="none" xmlns="http://www.w3.org/2000/svg">
<path d="M56.2468 1.63398C59.1481 0.209014 60.5859 0.39601 60.6183 1.84037C60.657 3.71665 60.3797 6.21175 60.1797 8.01714C59.1029 17.8297 57.304 25.8479 57.1687 35.9229C61.9076 23.6545 65.8793 15.1276 70.9987 4.62571C72.6236 1.27937 73.6616 1.90484 74.9962 1.31161C80.193 -1.00303 80.3866 0.415401 79.7094 3.24595C77.1884 13.7298 70.7343 46.7387 69.748 51.8214C69.4642 53.292 67.8653 52.6686 67.4525 52.0935C65.6022 49.5338 63.5132 49.4938 63.7452 47.7917C64.9058 39.3175 69.0837 18.0561 70.1735 13.0462C64.622 24.4275 58.8644 38.6554 55.9049 46.7227C55.2794 48.4357 54.1382 48.3101 53.4291 47.0566C52.4296 45.2959 50.4889 44.397 50.1665 42.3163C49.1543 35.7012 51.3271 23.0922 51.63 15.1153C48.6063 23.8292 43.532 40.747 41.3075 48.3905C40.392 51.5532 37.3358 51.0373 38.1481 47.9548C41.5266 35.1273 48.8061 12.4402 51.9525 4.28396C52.6943 2.36247 54.6348 2.42694 56.2468 1.63398Z" fill="#4F5665"/>
<path d="M37.8196 0.0608019C36.8396 -0.177707 33.9962 1.35682 32.2488 1.65981C31.6944 1.75652 31.1656 2.34321 30.9786 2.7624C28.1803 9.19065 25.6723 15.3184 23.4994 20.9007C20.7205 21.3752 17.471 22 13.8345 22.8169C16.4393 16.1353 19.07 9.54514 21.6361 3.20718C22.8998 0.0865014 19.5729 -0.210053 18.2833 2.94929C16.6069 7.05647 13.4669 14.7517 9.99165 23.7209C7.43838 24.3469 4.73046 25.0625 1.89991 25.8802C-0.156945 26.474 -0.240657 27.022 0.64913 28.2555C1.13911 28.9423 2.1514 28.8731 2.61557 29.3625C3.81488 30.6308 4.54346 32.1478 6.69038 32.3774C4.77544 37.5 2.86052 42.7826 1.12614 47.869C0.0365063 51.0618 3.13776 51.7149 4.33065 48.3363C6.25202 42.8901 8.27658 37.378 10.3591 31.8821C12.0935 31.4791 16.2909 30.5751 20.1658 29.7343C17.0904 38.1639 15.0657 44.5657 14.2986 47.6819C14.1568 48.2814 14.3953 48.6142 14.5242 48.8586C15.5622 50.3692 16.5487 50.4311 17.8834 52.2989C18.2446 52.8083 19.4567 53.083 19.8693 51.8289C22.7191 43.2207 25.6528 35.1438 28.3865 27.9031C29.5212 27.6549 31.5651 27.1617 32.8159 25.2951C35.0403 21.9822 35.6786 22.6541 36.2139 21.647C36.8845 20.3826 36.4395 19.1956 34.0669 19.4889C34.0669 19.4889 33.1706 19.5527 31.5136 19.7416C34.1442 12.9685 36.446 7.22362 38.103 2.84581C38.6707 1.36325 38.7416 0.280036 37.8196 0.0608019Z" fill="#4F5665"/>
<path d="M33.9381 43.9911C34.5506 45.5392 36.4655 45.0704 35.7369 43.202C34.9954 41.2985 33.1514 35.5686 32.6677 33.7226C32.0102 31.2352 34.8599 31.9154 33.4157 33.5416C32.1778 34.9399 31.3524 35.5003 29.0636 38.1592C26.8521 40.726 27.4517 44.0569 29.818 44.7926C32.4873 45.623 34.8407 42.6817 36.2978 40.5237C37.7098 38.4341 36.3429 37.2084 34.918 38.4438C34.0024 39.2381 32.945 40.4579 31.8747 41.1156C31.0043 41.6449 30.3208 41.0763 31.4814 39.4786C32.8289 37.6288 34.3377 36.0788 35.4595 34.3308C37.7485 30.7685 33.2222 28.715 31.275 31.029C30.2305 32.2625 30.4949 33.4734 30.7786 34.5126C31.2364 36.1773 32.9386 41.4915 33.9381 43.9911Z" fill="#4F5665"/>
</svg>
