<svg width="22" height="22" viewBox="0 0 22 22" fill="none" xmlns="http://www.w3.org/2000/svg">
<path d="M11.0011 2.67081C13.7142 2.67081 14.0355 2.68097 15.1073 2.72984C15.7517 2.73773 16.39 2.85606 16.9944 3.07968C17.4327 3.24872 17.8307 3.50766 18.1629 3.83984C18.4951 4.17202 18.754 4.57008 18.9231 5.00839C19.1467 5.6128 19.265 6.25108 19.2729 6.89549C19.3213 7.96726 19.3319 8.28855 19.3319 11.0016C19.3319 13.7147 19.3218 14.036 19.2729 15.1077C19.265 15.7522 19.1467 16.3904 18.9231 16.9948C18.754 17.4332 18.4951 17.8312 18.1629 18.1634C17.8307 18.4956 17.4327 18.7545 16.9944 18.9236C16.39 19.1472 15.7517 19.2655 15.1073 19.2734C14.036 19.3218 13.7147 19.3324 11.0011 19.3324C8.28759 19.3324 7.9663 19.3223 6.89501 19.2734C6.2506 19.2655 5.61232 19.1472 5.00791 18.9236C4.5696 18.7545 4.17154 18.4956 3.83936 18.1634C3.50718 17.8312 3.24824 17.4332 3.0792 16.9948C2.85557 16.3904 2.73725 15.7522 2.72936 15.1077C2.68097 14.036 2.67033 13.7147 2.67033 11.0016C2.67033 8.28855 2.68049 7.96726 2.72936 6.89549C2.73725 6.25108 2.85557 5.6128 3.0792 5.00839C3.24824 4.57008 3.50718 4.17202 3.83936 3.83984C4.17154 3.50766 4.5696 3.24872 5.00791 3.07968C5.61232 2.85606 6.2506 2.73773 6.89501 2.72984C7.96678 2.68146 8.28807 2.67081 11.0011 2.67081ZM11.0011 0.839844C8.24307 0.839844 7.89565 0.851457 6.81178 0.900811C5.96842 0.917586 5.134 1.07727 4.34404 1.37307C3.66637 1.62839 3.05258 2.0285 2.54549 2.54549C2.02804 3.05277 1.62758 3.66691 1.3721 4.34501C1.0763 5.13497 0.916619 5.96938 0.899844 6.81275C0.851457 7.89565 0.839844 8.24307 0.839844 11.0011C0.839844 13.7592 0.851457 14.1066 0.900811 15.1905C0.917586 16.0339 1.07727 16.8683 1.37307 17.6582C1.62827 18.3362 2.02839 18.9504 2.54549 19.4577C3.05286 19.9748 3.667 20.375 4.34501 20.6302C5.13497 20.926 5.96938 21.0856 6.81275 21.1024C7.89662 21.1508 8.24259 21.1634 11.0021 21.1634C13.7616 21.1634 14.1076 21.1518 15.1915 21.1024C16.0348 21.0856 16.8692 20.926 17.6592 20.6302C18.334 20.3686 18.9468 19.9691 19.4584 19.4572C19.9699 18.9453 20.369 18.3322 20.6302 17.6573C20.926 16.8673 21.0857 16.0329 21.1024 15.1895C21.1508 14.1066 21.1624 13.7592 21.1624 11.0011C21.1624 8.24307 21.1508 7.89565 21.1015 6.81178C21.0847 5.96841 20.925 5.134 20.6292 4.34404C20.374 3.66603 19.9739 3.05189 19.4568 2.54452C18.9494 2.02742 18.3353 1.6273 17.6573 1.3721C16.8673 1.0763 16.0329 0.916619 15.1895 0.899844C14.1066 0.851457 13.7592 0.839844 11.0011 0.839844Z" fill="#2948FF"/>
<path d="M11.0032 5.78516C9.97119 5.78516 8.96233 6.09119 8.10422 6.66456C7.24612 7.23793 6.5773 8.05288 6.18236 9.00635C5.78742 9.95983 5.68408 11.009 5.88542 12.0212C6.08676 13.0334 6.58374 13.9632 7.31349 14.6929C8.04325 15.4227 8.97302 15.9197 9.98523 16.121C10.9974 16.3224 12.0466 16.219 13.0001 15.8241C13.9536 15.4291 14.7685 14.7603 15.3419 13.9022C15.9153 13.0441 16.2213 12.0353 16.2213 11.0032C16.2213 9.6193 15.6715 8.29207 14.693 7.31349C13.7144 6.33492 12.3871 5.78516 11.0032 5.78516ZM11.0032 14.3903C10.3333 14.3903 9.67846 14.1917 9.12145 13.8195C8.56445 13.4473 8.13032 12.9183 7.87395 12.2994C7.61759 11.6805 7.55052 10.9995 7.68121 10.3424C7.8119 9.6854 8.13449 9.08188 8.60818 8.60818C9.08188 8.13449 9.6854 7.8119 10.3424 7.68121C10.9995 7.55051 11.6805 7.61759 12.2994 7.87395C12.9183 8.13031 13.4473 8.56445 13.8195 9.12145C14.1917 9.67846 14.3903 10.3333 14.3903 11.0032C14.3903 11.9015 14.0335 12.7631 13.3983 13.3983C12.7631 14.0335 11.9015 14.3903 11.0032 14.3903Z" fill="#2948FF"/>
<path d="M16.4264 6.79711C17.0998 6.79711 17.6457 6.25118 17.6457 5.57775C17.6457 4.90432 17.0998 4.3584 16.4264 4.3584C15.753 4.3584 15.207 4.90432 15.207 5.57775C15.207 6.25118 15.753 6.79711 16.4264 6.79711Z" fill="#2948FF"/>
</svg>
