<svg width="24" height="18" viewBox="0 0 24 18" fill="none" xmlns="http://www.w3.org/2000/svg">
    <path fillRule="evenodd" clipRule="evenodd"
        d="M2.62518 0C1.17544 0 0.000183112 1.17525 0.000183112 2.625V3.72866C-6.13298e-05 3.74219 -6.07448e-05 3.75571 0.000183112 3.76923V15.375C0.000183112 16.8248 1.17543 18 2.62518 18H21.3752C22.8249 18 24.0002 16.8248 24.0002 15.375V3.76898C24.0005 3.75564 24.0005 3.74227 24.0002 3.72891V2.625C24.0002 1.17525 22.8249 0 21.3752 0H2.62518ZM21.7502 3.10544V2.625C21.7502 2.4179 21.5823 2.25 21.3752 2.25H2.62518C2.41808 2.25 2.25018 2.4179 2.25018 2.625V3.10544L12.0002 8.82094L21.7502 3.10544ZM2.25018 5.71353V15.375C2.25018 15.5822 2.41808 15.75 2.62518 15.75H21.3752C21.5823 15.75 21.7502 15.5822 21.7502 15.375V5.71353L12.5691 11.0955C12.2178 11.3015 11.7826 11.3015 11.4312 11.0955L2.25018 5.71353Z"
        fill="white" />
</svg>