<svg width="103" height="60" viewBox="0 0 103 60" fill="none" xmlns="http://www.w3.org/2000/svg">
<path d="M102.67 48.7902V46.3094H99.5891V42.4525L99.4854 42.4844L96.5917 43.3697L96.5348 43.3871V46.3094H91.9676V44.6816C91.9676 43.9235 92.1372 43.3434 92.4711 42.9566C92.8029 42.5743 93.2775 42.38 93.8825 42.38C94.3176 42.38 94.7681 42.4825 95.2213 42.6847L95.3349 42.7353V40.1226L95.2816 40.103C94.8587 39.951 94.2833 39.8744 93.5705 39.8744C92.6719 39.8744 91.8554 40.0699 91.1434 40.4574C90.4309 40.8455 89.8704 41.3995 89.4779 42.104C89.0866 42.8076 88.888 43.6203 88.888 44.5195V46.3094H86.7429V48.7902H88.888V59.2416H91.9676V48.7902H96.5348V55.4319C96.5348 58.1673 97.825 59.5536 100.369 59.5536C100.788 59.5536 101.228 59.5044 101.677 59.4084C102.134 59.31 102.446 59.2116 102.629 59.1065L102.67 59.0826V56.5787L102.545 56.6616C102.378 56.7732 102.169 56.8641 101.925 56.9316C101.68 57.0006 101.475 57.0352 101.317 57.0352C100.721 57.0352 100.28 56.8745 100.006 56.5576C99.7295 56.2377 99.5891 55.6783 99.5891 54.8958V48.7902H102.67ZM79.8657 57.0354C78.7479 57.0354 77.8667 56.6648 77.2457 55.9347C76.6208 55.2009 76.3043 54.1547 76.3043 52.8256C76.3043 51.4544 76.6208 50.3811 77.246 49.6343C77.8674 48.8925 78.7403 48.516 79.8406 48.516C80.9084 48.516 81.7584 48.8756 82.3672 49.5854C82.9792 50.2987 83.2897 51.3634 83.2897 52.7507C83.2897 54.1551 82.9977 55.2338 82.4218 55.9553C81.85 56.6716 80.9901 57.0354 79.8657 57.0354ZM80.0029 45.9978C77.8703 45.9978 76.1765 46.6226 74.969 47.855C73.7622 49.0876 73.1501 50.7932 73.1501 52.9251C73.1501 54.9498 73.7475 56.5784 74.9257 57.765C76.1038 58.952 77.7072 59.5533 79.6909 59.5533C81.7581 59.5533 83.4181 58.9198 84.6253 57.6703C85.8323 56.422 86.4438 54.7327 86.4438 52.6506C86.4438 50.5941 85.87 48.9534 84.7377 47.7747C83.6049 46.5955 82.0116 45.9978 80.0029 45.9978ZM68.1849 45.9977C66.7344 45.9977 65.5345 46.3687 64.6179 47.1003C63.6957 47.8362 63.228 48.8015 63.228 49.9694C63.228 50.5765 63.329 51.1159 63.5277 51.5732C63.7276 52.0322 64.0371 52.4361 64.448 52.7752C64.856 53.1116 65.4854 53.464 66.3199 53.8224C67.0211 54.111 67.5443 54.3553 67.8765 54.5477C68.2013 54.7362 68.4319 54.9258 68.5621 55.1104C68.6885 55.291 68.7528 55.5382 68.7528 55.8435C68.7528 56.7123 68.1022 57.135 66.7634 57.135C66.2668 57.135 65.7003 57.0314 65.0798 56.8269C64.4589 56.6227 63.8788 56.3292 63.3558 55.9527L63.228 55.8611V58.8259L63.2749 58.8477C63.7107 59.0488 64.26 59.2184 64.9075 59.3519C65.5538 59.4855 66.1409 59.5536 66.6511 59.5536C68.2252 59.5536 69.4928 59.1807 70.4176 58.4448C71.3484 57.7038 71.8203 56.7159 71.8203 55.5073C71.8203 54.6357 71.5663 53.8881 71.0656 53.2852C70.5686 52.6872 69.7058 52.1383 68.5022 51.653C67.5434 51.2682 66.9292 50.9487 66.6759 50.7036C66.4316 50.4667 66.3076 50.1316 66.3076 49.7074C66.3076 49.3313 66.4606 49.0301 66.775 48.786C67.0917 48.5407 67.5325 48.416 68.0855 48.416C68.5986 48.416 69.1236 48.497 69.6456 48.6558C70.1674 48.8146 70.6255 49.0273 71.0081 49.2876L71.1339 49.3736V46.5612L71.0856 46.5403C70.7327 46.389 70.2673 46.2596 69.7022 46.1545C69.1393 46.0505 68.6288 45.9977 68.1849 45.9977ZM55.1997 57.0354C54.0823 57.0354 53.2007 56.6648 52.5798 55.9347C51.9548 55.2009 51.6388 54.1551 51.6388 52.8256C51.6388 51.4544 51.9552 50.3811 52.5805 49.6343C53.2014 48.8925 54.0741 48.516 55.175 48.516C56.2424 48.516 57.0924 48.8756 57.7014 49.5854C58.3134 50.2987 58.6238 51.3634 58.6238 52.7507C58.6238 54.1551 58.3316 55.2338 57.7558 55.9553C57.184 56.6716 56.3245 57.0354 55.1997 57.0354ZM55.3372 45.9978C53.2041 45.9978 51.5103 46.6226 50.3033 47.855C49.0965 49.0876 48.4841 50.7932 48.4841 52.9251C48.4841 54.9506 49.0818 56.5784 50.26 57.765C51.4382 58.952 53.0414 59.5533 55.0252 59.5533C57.0919 59.5533 58.7524 58.9198 59.9596 57.6703C61.1663 56.422 61.7781 54.7327 61.7781 52.6506C61.7781 50.5941 61.2041 48.9534 60.0717 47.7747C58.9386 46.5955 57.3455 45.9978 55.3372 45.9978ZM43.8094 48.5489V46.3094H40.7674V59.2412H43.8094V52.6261C43.8094 51.5012 44.0645 50.5772 44.5677 49.8792C45.0645 49.1896 45.7267 48.84 46.5351 48.84C46.809 48.84 47.1166 48.8853 47.4497 48.9746C47.7794 49.0635 48.0182 49.1599 48.1591 49.2614L48.2869 49.354V46.2872L48.2376 46.2661C47.9543 46.1456 47.5536 46.0849 47.0465 46.0849C46.2821 46.0849 45.5979 46.3305 45.012 46.8141C44.4977 47.2392 44.1259 47.8221 43.8417 48.5489H43.8094ZM35.3198 45.9977C33.9243 45.9977 32.6795 46.2971 31.6205 46.887C30.5596 47.4782 29.7391 48.3223 29.1808 49.3958C28.6251 50.4667 28.3429 51.7175 28.3429 53.1123C28.3429 54.3341 28.6165 55.4555 29.1573 56.4436C29.6983 57.4335 30.4642 58.2079 31.4336 58.745C32.4016 59.2815 33.5204 59.5536 34.7591 59.5536C36.2048 59.5536 37.439 59.2644 38.4287 58.6945L38.4686 58.6715V55.8847L38.3409 55.978C37.8926 56.3044 37.3916 56.5651 36.8526 56.7529C36.3149 56.9405 35.8247 57.0354 35.395 57.0354C34.2013 57.0354 33.2432 56.6618 32.5476 55.9256C31.8505 55.1882 31.497 54.153 31.497 52.8501C31.497 51.5391 31.8657 50.4772 32.5921 49.6936C33.3162 48.9124 34.2762 48.5161 35.4452 48.5161C36.4451 48.5161 37.4194 48.8547 38.3412 49.5234L38.4686 49.616V46.6795L38.4275 46.6563C38.0806 46.4622 37.6076 46.3019 37.0201 46.1803C36.4354 46.059 35.8634 45.9977 35.3198 45.9977ZM26.2478 46.3094H23.2058V59.2413H26.2478V46.3094ZM24.7578 40.8003C24.2572 40.8003 23.8205 40.9707 23.4618 41.3085C23.1015 41.6472 22.9187 42.0737 22.9187 42.5769C22.9187 43.0722 23.0993 43.4908 23.456 43.8206C23.8105 44.1493 24.2485 44.3159 24.7578 44.3159C25.267 44.3159 25.7067 44.1493 26.0655 43.8211C26.4266 43.4908 26.6096 43.0722 26.6096 42.5769C26.6096 42.0913 26.4315 41.6691 26.0803 41.3221C25.7296 40.9759 25.2846 40.8003 24.7578 40.8003ZM17.1679 45.3553V59.2412H20.2724V41.1963H15.9758L10.5143 54.5995L5.21432 41.1963H0.742676V59.2412H3.66003V45.354H3.76033L9.35692 59.2412H11.5585L17.0678 45.3553H17.1679Z" fill="#4F5665"/>
<path d="M48.9504 15.0514H34.6401V0.741089H48.9504V15.0514Z" fill="#4F5665"/>
<path d="M64.7505 15.0514H50.4404V0.741089H64.7505V15.0514Z" fill="#4F5665"/>
<path d="M48.9501 30.8574H34.6401V16.5471H48.9501V30.8574Z" fill="#4F5665"/>
<path d="M64.7505 30.8574H50.4404V16.5471H64.7505V30.8574Z" fill="#4F5665"/>
</svg>
