<svg width="18" height="15" viewBox="0 0 18 15" fill="none" xmlns="http://www.w3.org/2000/svg">
<path d="M17.3107 2.47465C16.6822 2.754 16.0187 2.92859 15.3203 3.03335C16.0187 2.61433 16.5774 1.95088 16.8218 1.14775C16.1584 1.53185 15.4251 1.8112 14.622 1.98579C13.9934 1.32234 13.0856 0.90332 12.1078 0.90332C10.2222 0.90332 8.68582 2.43974 8.68582 4.32534C8.68582 4.60468 8.72074 4.84911 8.79058 5.09354C5.96218 4.95387 3.41312 3.59205 1.70212 1.49694C1.42277 2.02071 1.24818 2.57941 1.24818 3.20794C1.24818 4.39517 1.84179 5.44273 2.78459 6.07126C2.22589 6.03634 1.70212 5.89667 1.21326 5.65224V5.68716C1.21326 7.36325 2.40049 8.75999 3.97182 9.07425C3.69247 9.14409 3.3782 9.17901 3.06394 9.17901C2.85443 9.17901 2.61 9.14409 2.40049 9.10917C2.85443 10.471 4.11149 11.4836 5.61299 11.4836C4.42576 12.3915 2.95918 12.9502 1.35293 12.9502C1.07358 12.9502 0.794234 12.9502 0.549805 12.9153C2.08622 13.893 3.86706 14.4517 5.8225 14.4517C12.1428 14.4517 15.5997 9.21393 15.5997 4.67452C15.5997 4.53485 15.5997 4.36025 15.5997 4.22058C16.2631 3.76664 16.8568 3.17302 17.3107 2.47465Z" fill="#2948FF"/>
</svg>
